<?xml version="1.0" encoding="UTF-8"?>
<svg width="90px" height="45px" viewBox="0 0 90 45" version="1.1" xmlns="http://www.w3.org/2000/svg" xmlns:xlink="http://www.w3.org/1999/xlink">
    <title>SCK R de rush</title>
    <defs>
        <filter id="filter-1">
            <feColorMatrix in="SourceGraphic" type="matrix" values="0 0 0 0 1.000000 0 0 0 0 1.000000 0 0 0 0 1.000000 0 0 0 1.000000 0"></feColorMatrix>
        </filter>
    </defs>
    <g id="Page-1" stroke="none" stroke-width="1" fill="none" fill-rule="evenodd">
        <g filter="url(#filter-1)" id="SCK-R-de-rush">
            <g>
                <path d="M0.2124,38.2142857 C0.371827678,38.1829293 0.532869822,38.1602761 0.6948,38.1464286 C2.406,38.0583332 4.1148,37.9726189 5.8212,37.8892857 C9.9036,37.6928571 13.9896,37.5071429 18.0612,37.3 C21.9384,37.1 25.8084,36.875 29.6856,36.6607143 C31.1436,36.5821429 32.6016,36.5142857 34.0596,36.4392857 C34.2684,36.4392857 34.4736,36.4107143 34.6824,36.3892857 C35.1108,36.3428571 35.19,36.0321429 35.2116,35.6178571 C32.9292,35.2785714 30.6324,35.2607143 28.3716,35.0821429 C26.1108,34.9035714 23.7924,34.7642857 21.5028,34.6142857 C19.2132,34.4642857 16.92,34.3285714 14.6304,34.1821429 L7.6932,33.7285714 C8.04276,33.5080832 8.45322232,33.4019102 8.8668,33.425 C12.366,33.2321429 15.8652,33.0678571 19.3644,32.85 C22.8636,32.6321429 26.3592,32.4142857 29.8548,32.2035714 C31.6872,32.0928571 33.5232,32 35.3556,31.8964286 C35.6885403,31.900889 36.0211759,31.874585 36.3492,31.8178571 C36.7092,31.7321429 36.8856,31.4607143 36.7308,31.0178571 C35.6508,30.7285714 34.524,30.8678571 33.4152,30.7785714 C32.3064,30.6892857 31.2552,30.65 30.1752,30.5892857 C29.0952,30.5285714 27.9288,30.4464286 26.802,30.3892857 C25.6752,30.3321429 24.552,30.3 23.4252,30.2464286 C22.2984,30.1928571 21.1752,30.1321429 20.052,30.0678571 C18.9288,30.0035714 17.892,29.9321429 16.812,29.8714286 C15.732,29.8107143 14.562,29.7607143 13.4352,29.7071429 C12.3084,29.6535714 11.1852,29.6107143 10.0584,29.5535714 C8.9316,29.4964286 7.8084,29.4214286 6.6852,29.3571429 C5.562,29.2928571 4.5252,29.225 3.4452,29.1714286 C2.3652,29.1178571 1.1952,29.0785714 0.0576,29.0321429 C0.0792,28.7071429 0.3204,28.7535714 0.4932,28.7357143 C0.7812,28.7035714 1.0764,28.7035714 1.368,28.6928571 C5.9112,28.497619 10.4544,28.3011905 14.9976,28.1035714 C18.4392,27.9535714 21.8892,27.7952381 25.3476,27.6285714 C29.0988,27.4547619 32.85,27.2797619 36.6012,27.1035714 C37.1008519,27.0847867 37.5987222,27.0334859 38.0916,26.95 C38.2356,26.9214286 38.3364,26.6857143 38.538,26.4535714 C38.1276,26.3857143 37.8504,26.3107143 37.5696,26.2964286 C35.364,26.1607143 33.1608,26.0321429 30.96,25.9107143 C26.3352,25.672619 21.7104,25.4345238 17.0856,25.1964286 C14.7924,25.0785714 12.4992,24.9892857 10.2096,24.8678571 C7.002,24.7 3.7944,24.5107143 0.5832,24.25 C1.4148,24.2107143 2.2428,24.1821429 3.0708,24.1357143 C3.8988,24.0892857 4.734,24.0214286 5.5692,23.9821429 C8.8596,23.825 12.1524,23.672619 15.4476,23.525 C17.9064,23.4142857 20.3652,23.3214286 22.824,23.2071429 C25.6572,23.0785714 28.4904,22.9285714 31.3236,22.7964286 C33.6996,22.6821429 36.0756,22.5821429 38.4516,22.475 C38.7432,22.475 39.0384,22.475 39.33,22.4464286 C39.996,22.4 40.0104,22.375 40.1292,21.4178571 C38.7828,21.1285714 37.4076,21.2 36.0468,21.1107143 C34.686,21.0214286 33.2964,20.9464286 31.9248,20.8642857 L27.6768,20.6107143 L23.5404,20.3571429 C22.1688,20.275 20.7936,20.1964286 19.4184,20.1071429 C18.0432,20.0178571 16.686,19.9214286 15.3144,19.75 C16.3116,19.6714286 17.3052,19.575 18.2988,19.5142857 C19.8,19.4214286 21.2976,19.3464286 22.7988,19.275 C25.0488,19.1642857 27.2988,19.0678571 29.5488,18.9535714 C33.0912,18.775 36.6336,18.5916667 40.176,18.4035714 C40.3416,18.4035714 40.5072,18.3892857 40.6728,18.3607143 C41.418,18.2678571 41.4468,18.2321429 41.58,17.2678571 C41.3917009,17.2117034 41.1990448,17.1710889 41.004,17.1464286 C38.0448,16.9785714 35.0856,16.825 32.13,16.6642857 L24.8796,16.2607143 C23.1732,16.1630952 21.4656,16.072619 19.7568,15.9892857 C15.7968,15.7928571 11.8368,15.6071429 7.8768,15.4 C6.87324571,15.3534531 5.87387761,15.241305 4.8852,15.0642857 C5.382,15.0642857 5.8752,15.0285714 6.372,15.0035714 L15.372,14.575 C17.2476,14.4857143 19.1232,14.3928571 20.9988,14.3107143 C23.5404,14.2 26.0856,14.1071429 28.6272,13.9892857 C31.4244,13.8607143 34.2,13.7071429 37.008,13.5714286 C38.1312,13.5178571 39.258,13.5071429 40.3848,13.4535714 C41.1768,13.4178571 41.9688,13.3571429 42.7572,13.2821429 C43.1748,13.2392857 43.2864,12.9571429 43.2,12.5071429 C39.0924,12.1892857 34.9704,12.0535714 30.852,11.8178571 C26.7336,11.5821429 22.6008,11.4285714 18.4752,11.1821429 C14.3496,10.9357143 10.2312,10.8392857 6.12,10.3571429 L44.7048,8.57142857 C44.8452,8.18571429 44.964,7.85714286 45.108,7.47142857 C44.0676,7.08928571 43.056,7.20357143 42.084,7.04642857 C41.112,6.88928571 40.0932,6.84642857 39.096,6.75357143 L36.216,6.49285714 C35.2188,6.4 34.2216,6.31785714 33.228,6.22142857 C32.2387249,6.14005332 31.255325,5.99931954 30.2832,5.8 C30.6432,5.73928571 31.0032,5.65357143 31.3632,5.61785714 C32.5656,5.50714286 33.7716,5.41785714 34.9632,5.31785714 L43.2324,4.64285714 C44.0208,4.57857143 44.8164,4.55 45.6012,4.46071429 C46.242,4.38928571 46.2636,4.32857143 46.4328,3.38928571 C45.3024,3.13214286 44.136,3.21785714 42.9948,3.10714286 C41.8536,2.99642857 40.662,3.00357143 39.4956,2.94642857 C38.3292,2.88928571 37.2456,2.825 36.1188,2.75714286 C34.992,2.68928571 33.7896,2.61428571 32.6196,2.55357143 C31.4496,2.49285714 30.2868,2.43928571 29.1204,2.38571429 C27.954,2.33214286 26.7876,2.28214286 25.6212,2.22142857 C24.4548,2.16071429 23.2884,2.08928571 22.122,2.02142857 C20.9556,1.95357143 19.872,1.88214286 18.7488,1.825 C17.6256,1.76785714 16.4124,1.73571429 15.246,1.67142857 C14.0796,1.60714286 12.9384,1.525 11.7864,1.39642857 C13.1148,1.31428571 14.4468,1.21428571 15.7752,1.15357143 C18.234,1.03571429 20.6964,0.946428571 23.1552,0.835714286 C25.9884,0.714285714 28.8216,0.542857143 31.6548,0.425 C35.406,0.271428571 39.1608,0.0535714286 42.912,0.0357142857 C54.5976,-0.0178571429 66.2832,0.0357142857 77.9688,0 C80.6107345,0.0120544623 83.200783,0.728749143 85.4676,2.075 C88.2324,3.66071429 89.712,6.08571429 89.9316,9.25714286 C90.0301586,10.6213074 89.9307439,11.992444 89.6364,13.3285714 C88.7724,17.2571429 87.318,20.925 84.8196,24.1357143 C83.1808256,26.2346195 81.2315981,28.0756628 79.038,29.5964286 L77.958,30.3607143 C77.7672,30.8214286 77.9148,31.2214286 77.9868,31.6214286 C78.75,35.8190475 79.5120001,40.0130954 80.2728,44.2035714 C80.2910156,44.4186686 80.2910156,44.6349029 80.2728,44.85 C79.992,44.8821429 79.7508,44.9321429 79.5096,44.9357143 C74.6856,45.0607143 66.5244,44.9928571 65.286,44.8142857 C65.1888,44.4214286 65.052,43.9964286 64.9728,43.5571429 C64.2768001,39.8571429 63.5868,36.1559525 62.9028,32.4535714 C62.8272,32.05 62.73,31.65 62.6292,31.2035714 C62.4289698,31.14849 62.2241402,31.1114352 62.0172,31.0928571 C58.3859999,31.0928571 54.7548001,31.0928571 51.1236,31.0928571 C50.9315998,31.1059885 50.7404974,31.1298358 50.5512,31.1642857 C49.662,33.4178571 48.9384,35.7464286 48.1212,38.0392857 C47.304,40.3321429 46.548,42.5678571 45.756,44.8535714 C45.396,44.8857143 45.1188,44.9392857 44.8344,44.9392857 C40.5144,44.9392857 36.1548,44.9571429 31.8132,44.9392857 C30.8988,44.9392857 29.9844,44.8214286 29.07,44.7357143 C26.91,44.5321429 24.75,44.3107143 22.59,44.1035714 C20.5128,43.9035714 18.4356,43.7142857 16.3584,43.5214286 C15.1956,43.4142857 14.0328,43.3178571 12.87,43.2071429 C12.7037316,43.1719375 12.5410548,43.1217286 12.384,43.0571429 C12.4992,42.9571429 12.546,42.8785714 12.6,42.875 C16.0488,42.5892857 19.4988,42.3083332 22.95,42.0321429 C25.902,41.7940475 28.8528,41.5464286 31.8024,41.2892857 C32.2984046,41.2414004 32.7904123,41.1590554 33.2748,41.0428571 C33.3828,41.0178571 33.4764,40.7964286 33.5016,40.6535714 C33.5016,40.5892857 33.3576,40.4357143 33.2604,40.4178571 C32.9329503,40.361195 32.6023474,40.3242229 32.2704,40.3071429 C28.272,40.0690475 24.2736,39.8309525 20.2752,39.5928571 C18.2772,39.4785714 16.2756,39.3821429 14.2776,39.2678571 C12.0672,39.1392857 9.864,38.9928571 7.6536,38.8642857 C5.6124,38.7464286 3.5712,38.6392857 1.5336,38.5071429 C1.0872,38.4857143 0.6408,38.4535714 0.1944,38.425 L0.2124,38.2142857 Z M55.116,19.0321429 C55.5876,19.275 56.052,19.1785714 56.502,19.1821429 C61.3764,19.1821429 66.2508,19.1821429 71.1252,19.1821429 C71.4168,19.1821429 71.7084,19.1821429 72,19.1821429 C74.7384167,19.0630556 77.0051261,17.0302131 77.4,14.3392857 C77.6088,13.0142857 77.0904,12.1071429 75.816,11.5928571 C75.1537505,11.3403885 74.4480648,11.2190566 73.7388,11.2357143 C68.7816,11.2357143 63.8244,11.2357143 58.8672,11.2357143 C58.5072,11.2357143 58.1256,11.2678571 57.6792,11.2857143 C56.7648,13.7035714 55.9728,16.1357143 55.1592,18.5535714 C55.1202127,18.7099645 55.1056432,18.871366 55.116,19.0321429 Z" id="Shape" fill="#FFFFFF" fill-rule="nonzero"></path>
            </g>
        </g>
    </g>
</svg>